<mxfile host="app.diagrams.net" modified="2024-04-25T03:36:19.631Z" agent="Mozilla/5.0 (Macintosh; Intel Mac OS X 10_15_7) AppleWebKit/537.36 (KHTML, like Gecko) Chrome/124.0.0.0 Safari/537.36" version="24.2.8" etag="ThBloXB--04gouoP-gKz" type="github">
  <diagram name="Page-1" id="ZBTC68_SJGbllKqK9laX">
    <mxGraphModel>
      <root>
        <mxCell id="0" />
        <mxCell id="1" parent="0" />
      </root>
    </mxGraphModel>
  </diagram>
</mxfile>
